<?xml version="1.0" encoding="UTF-8"?>
<svg width="19px" height="25px" viewBox="0 0 19 25" version="1.1" xmlns="http://www.w3.org/2000/svg" xmlns:xlink="http://www.w3.org/1999/xlink">
    <title>logoD Copy</title>
    <g id="Page-1" stroke="none" stroke-width="1" fill="none" fill-rule="evenodd">
        <g id="iPhone-8" transform="translate(-20.000000, -15.000000)" fill="#F4F4F4">
            <g id="logoD-Copy" transform="translate(20.000000, 15.000000)">
                <path d="M9.58749371,1.43829955 C9.58749371,1.43829955 17.3603404,3.56745005 17.4478326,6.18531695 C18.061209,21.6337861 9.47021689,23.5042044 9.47021689,23.5042044 C9.47021689,23.5042044 0.879224803,21.6337861 1.49353193,6.18531695 C1.60987798,3.56745005 9.58749371,1.43829955 9.58749371,1.43829955 Z M9.58749371,0 C9.47021689,0 9.32408626,0.0287480236 9.20774021,0.0574960471 C9.12024798,0.0862440707 7.0744191,0.633354894 4.99973639,1.525442 C3.71434527,2.07165445 2.69143083,2.6178669 1.93192383,3.22247377 C0.704240349,4.1433089 0.0908639909,5.1207417 0.0322255833,6.18531695 C-0.113905051,9.86775909 0.236994626,13.1189809 1.08399385,15.8805879 C1.7857932,18.1525801 2.80777687,20.0804945 4.15273717,21.6337861 C6.48989656,24.3378971 8.91547894,24.9137559 9.17888639,24.971252 C9.29523244,25 9.38272466,25 9.5,25 C9.61634753,25 9.70477052,24.971252 9.82111657,24.971252 C10.084524,24.9137559 12.5091756,24.3091491 14.8472658,21.6337861 C16.1912953,20.0804945 17.2142098,18.1525801 17.9150783,15.8805879 C18.7630083,13.1189809 19.113908,9.86775909 18.9677774,6.18531695 C18.909139,4.45953716 17.3314866,2.96374156 14.1166126,1.55419002 C12.0717145,0.662102918 10.084524,0.114992094 9.99703179,0.0862440707 C9.85090116,0.0287480236 9.73362434,0 9.58749371,0 Z" id="Shape" fill-rule="nonzero"></path>
                <path d="M15.4814815,8.33333333 C15.4814815,8.33333333 11.3210912,11.2718801 10.6565333,12.4649264 C10.0490427,13.6288963 9.50046022,18.75 9.50046022,18.75 C9.50046022,18.75 9.03839917,13.5707432 8.34438717,12.4649264 C7.7083629,11.4463393 3.51851852,8.33333333 3.51851852,8.33333333 C3.51851852,8.33333333 7.94031386,10.4277521 9.50046022,10.4277521 C11.0320729,10.4277521 15.4814815,8.33333333 15.4814815,8.33333333 Z" id="Path"></path>
            </g>
        </g>
    </g>
</svg>